<svg xmlns="http://www.w3.org/2000/svg" xmlns:xlink="http://www.w3.org/1999/xlink" contentStyleType="text/css" data-diagram-type="CLASS" height="811px" preserveAspectRatio="none" style="width:1364px;height:811px;background:#FFFFFF;" version="1.1" viewBox="0 0 1364 811" width="1364px" zoomAndPan="magnify"><defs/><g><!--class allergene--><g id="elem_allergene"><rect codeLine="1" fill="#F1F1F1" height="80.5938" id="allergene" rx="2.5" ry="2.5" style="stroke:#181818;stroke-width:0.5;" width="147.8027" x="450.86" y="452"/><ellipse cx="488.4" cy="468" fill="#ADD1B2" rx="11" ry="11" style="stroke:#181818;stroke-width:1;"/><path d="M492.5094,474 L484.7906,474 L484.7906,461.6094 L492.5094,461.6094 L492.5094,463.7656 L487.2437,463.7656 L487.2437,466.4375 L492.0094,466.4375 L492.0094,468.5938 L487.2437,468.5938 L487.2437,471.8438 L492.5094,471.8438 L492.5094,474 Z " fill="#000000"/><text fill="#000000" font-family="sans-serif" font-size="14" lengthAdjust="spacing" textLength="65.7139" x="507.4089" y="472.8467">allergene</text><line style="stroke:#181818;stroke-width:0.5;" x1="451.86" x2="597.6627" y1="484" y2="484"/><ellipse cx="461.86" cy="497.6484" fill="#000000" rx="3" ry="3" style="stroke:#000000;stroke-width:1;"/><text fill="#000000" font-family="sans-serif" font-size="14" lengthAdjust="spacing" textLength="77.6426" x="470.86" y="500.9951">id : int (PK)</text><line style="stroke:#181818;stroke-width:1;" x1="451.86" x2="597.6627" y1="508.2969" y2="508.2969"/><text fill="#000000" font-family="sans-serif" font-size="14" lengthAdjust="spacing" textLength="135.8027" x="456.86" y="525.292">label : varchar (UK)</text></g><!--class commentaire--><g id="elem_commentaire"><rect codeLine="7" fill="#F1F1F1" height="113.1875" id="commentaire" rx="2.5" ry="2.5" style="stroke:#181818;stroke-width:0.5;" width="179.1592" x="758.36" y="7"/><ellipse cx="797.5734" cy="23" fill="#ADD1B2" rx="11" ry="11" style="stroke:#181818;stroke-width:1;"/><path d="M801.6828,29 L793.9641,29 L793.9641,16.6094 L801.6828,16.6094 L801.6828,18.7656 L796.4172,18.7656 L796.4172,21.4375 L801.1828,21.4375 L801.1828,23.5938 L796.4172,23.5938 L796.4172,26.8438 L801.6828,26.8438 L801.6828,29 Z " fill="#000000"/><text fill="#000000" font-family="sans-serif" font-size="14" lengthAdjust="spacing" textLength="93.3516" x="816.9542" y="27.8467">commentaire</text><line style="stroke:#181818;stroke-width:0.5;" x1="759.36" x2="936.5192" y1="39" y2="39"/><ellipse cx="769.36" cy="52.6484" fill="#000000" rx="3" ry="3" style="stroke:#000000;stroke-width:1;"/><text fill="#000000" font-family="sans-serif" font-size="14" lengthAdjust="spacing" textLength="77.6426" x="778.36" y="55.9951">id : int (PK)</text><line style="stroke:#181818;stroke-width:1;" x1="759.36" x2="936.5192" y1="63.2969" y2="63.2969"/><text fill="#000000" font-family="sans-serif" font-size="14" lengthAdjust="spacing" textLength="167.1592" x="764.36" y="80.292">id_utilisateur : uuid (FK)</text><text fill="#000000" font-family="sans-serif" font-size="14" lengthAdjust="spacing" textLength="134.5244" x="764.36" y="96.5889">id_recette : int (FK)</text><text fill="#000000" font-family="sans-serif" font-size="14" lengthAdjust="spacing" textLength="98.4785" x="764.36" y="112.8857">contenu : text</text></g><!--class frigo--><g id="elem_frigo"><rect codeLine="15" fill="#F1F1F1" height="113.1875" id="frigo" rx="2.5" ry="2.5" style="stroke:#181818;stroke-width:0.5;" width="219.6826" x="175.86" y="7"/><ellipse cx="265.4381" cy="23" fill="#ADD1B2" rx="11" ry="11" style="stroke:#181818;stroke-width:1;"/><path d="M269.5475,29 L261.8288,29 L261.8288,16.6094 L269.5475,16.6094 L269.5475,18.7656 L264.2819,18.7656 L264.2819,21.4375 L269.0475,21.4375 L269.0475,23.5938 L264.2819,23.5938 L264.2819,26.8438 L269.5475,26.8438 L269.5475,29 Z " fill="#000000"/><text fill="#000000" font-family="sans-serif" font-size="14" lengthAdjust="spacing" textLength="32.0264" x="285.9381" y="27.8467">frigo</text><line style="stroke:#181818;stroke-width:0.5;" x1="176.86" x2="394.5426" y1="39" y2="39"/><ellipse cx="186.86" cy="52.6484" fill="#000000" rx="3" ry="3" style="stroke:#000000;stroke-width:1;"/><text fill="#000000" font-family="sans-serif" font-size="14" lengthAdjust="spacing" textLength="193.6826" x="195.86" y="55.9951">id_utilisateur : uuid (PK, FK)</text><ellipse cx="186.86" cy="68.9453" fill="#000000" rx="3" ry="3" style="stroke:#000000;stroke-width:1;"/><text fill="#000000" font-family="sans-serif" font-size="14" lengthAdjust="spacing" textLength="182.5469" x="195.86" y="72.292">id_ingredient : int (PK, FK)</text><ellipse cx="186.86" cy="85.2422" fill="#000000" rx="3" ry="3" style="stroke:#000000;stroke-width:1;"/><text fill="#000000" font-family="sans-serif" font-size="14" lengthAdjust="spacing" textLength="138.8311" x="195.86" y="88.5889">date_ajout : int (PK)</text><line style="stroke:#181818;stroke-width:1;" x1="176.86" x2="394.5426" y1="95.8906" y2="95.8906"/><text fill="#000000" font-family="sans-serif" font-size="14" lengthAdjust="spacing" textLength="125.8359" x="181.86" y="112.8857">quantite : varchar</text></g><!--class ingredient--><g id="elem_ingredient"><rect codeLine="23" fill="#F1F1F1" height="129.4844" id="ingredient" rx="2.5" ry="2.5" style="stroke:#181818;stroke-width:0.5;" width="145.041" x="295.36" y="675"/><ellipse cx="328.9317" cy="691" fill="#ADD1B2" rx="11" ry="11" style="stroke:#181818;stroke-width:1;"/><path d="M333.0411,697 L325.3224,697 L325.3224,684.6094 L333.0411,684.6094 L333.0411,686.7656 L327.7755,686.7656 L327.7755,689.4375 L332.5411,689.4375 L332.5411,691.5938 L327.7755,691.5938 L327.7755,694.8438 L333.0411,694.8438 L333.0411,697 Z " fill="#000000"/><text fill="#000000" font-family="sans-serif" font-size="14" lengthAdjust="spacing" textLength="71.7705" x="347.0588" y="695.8467">ingredient</text><line style="stroke:#181818;stroke-width:0.5;" x1="296.36" x2="439.401" y1="707" y2="707"/><ellipse cx="306.36" cy="720.6484" fill="#000000" rx="3" ry="3" style="stroke:#000000;stroke-width:1;"/><text fill="#000000" font-family="sans-serif" font-size="14" lengthAdjust="spacing" textLength="77.6426" x="315.36" y="723.9951">id : int (PK)</text><line style="stroke:#181818;stroke-width:1;" x1="296.36" x2="439.401" y1="731.2969" y2="731.2969"/><text fill="#000000" font-family="sans-serif" font-size="14" lengthAdjust="spacing" textLength="133.0205" x="301.36" y="748.292">nom : varchar (UK)</text><text fill="#000000" font-family="sans-serif" font-size="14" lengthAdjust="spacing" textLength="124.1133" x="301.36" y="764.5889">debut_saison : int</text><text fill="#000000" font-family="sans-serif" font-size="14" lengthAdjust="spacing" textLength="101.0557" x="301.36" y="780.8857">fin_saison : int</text><text fill="#000000" font-family="sans-serif" font-size="14" lengthAdjust="spacing" textLength="133.041" x="301.36" y="797.1826">url_photo : varchar</text></g><!--class panier--><g id="elem_panier"><rect codeLine="34" fill="#F1F1F1" height="96.8906" id="panier" rx="2.5" ry="2.5" style="stroke:#181818;stroke-width:0.5;" width="185.9199" x="633.86" y="444"/><ellipse cx="700.2711" cy="460" fill="#ADD1B2" rx="11" ry="11" style="stroke:#181818;stroke-width:1;"/><path d="M704.3805,466 L696.6618,466 L696.6618,453.6094 L704.3805,453.6094 L704.3805,455.7656 L699.1149,455.7656 L699.1149,458.4375 L703.8805,458.4375 L703.8805,460.5938 L699.1149,460.5938 L699.1149,463.8438 L704.3805,463.8438 L704.3805,466 Z " fill="#000000"/><text fill="#000000" font-family="sans-serif" font-size="14" lengthAdjust="spacing" textLength="44.5977" x="720.7711" y="464.8467">panier</text><line style="stroke:#181818;stroke-width:0.5;" x1="634.86" x2="818.7799" y1="476" y2="476"/><ellipse cx="644.86" cy="489.6484" fill="#000000" rx="3" ry="3" style="stroke:#000000;stroke-width:1;"/><text fill="#000000" font-family="sans-serif" font-size="14" lengthAdjust="spacing" textLength="77.6426" x="653.86" y="492.9951">id : int (PK)</text><line style="stroke:#181818;stroke-width:1;" x1="634.86" x2="818.7799" y1="500.2969" y2="500.2969"/><text fill="#000000" font-family="sans-serif" font-size="14" lengthAdjust="spacing" textLength="173.9199" x="639.86" y="517.292">id_producteur : uuid (FK)</text><text fill="#000000" font-family="sans-serif" font-size="14" lengthAdjust="spacing" textLength="76.7539" x="639.86" y="533.5889">date : date</text></g><!--class recette--><g id="elem_recette"><rect codeLine="41" fill="#F1F1F1" height="210.9688" id="recette" rx="2.5" ry="2.5" style="stroke:#181818;stroke-width:0.5;" width="208.335" x="854.86" y="387"/><ellipse cx="929.6417" cy="403" fill="#ADD1B2" rx="11" ry="11" style="stroke:#181818;stroke-width:1;"/><path d="M933.7511,409 L926.0324,409 L926.0324,396.6094 L933.7511,396.6094 L933.7511,398.7656 L928.4855,398.7656 L928.4855,401.4375 L933.2511,401.4375 L933.2511,403.5938 L928.4855,403.5938 L928.4855,406.8438 L933.7511,406.8438 L933.7511,409 Z " fill="#000000"/><text fill="#000000" font-family="sans-serif" font-size="14" lengthAdjust="spacing" textLength="50.2715" x="950.1417" y="407.8467">recette</text><line style="stroke:#181818;stroke-width:0.5;" x1="855.86" x2="1062.195" y1="419" y2="419"/><ellipse cx="865.86" cy="432.6484" fill="#000000" rx="3" ry="3" style="stroke:#000000;stroke-width:1;"/><text fill="#000000" font-family="sans-serif" font-size="14" lengthAdjust="spacing" textLength="77.6426" x="874.86" y="435.9951">id : int (PK)</text><line style="stroke:#181818;stroke-width:1;" x1="855.86" x2="1062.195" y1="443.2969" y2="443.2969"/><text fill="#000000" font-family="sans-serif" font-size="14" lengthAdjust="spacing" textLength="98.2188" x="860.86" y="460.292">nom : varchar</text><text fill="#000000" font-family="sans-serif" font-size="14" lengthAdjust="spacing" textLength="164.6641" x="860.86" y="476.5889">temps_preparation : int</text><text fill="#000000" font-family="sans-serif" font-size="14" lengthAdjust="spacing" textLength="109.4365" x="860.86" y="492.8857">complexite : int</text><text fill="#000000" font-family="sans-serif" font-size="14" lengthAdjust="spacing" textLength="155.9004" x="860.86" y="509.1826">id_createur : uuid (FK)</text><text fill="#000000" font-family="sans-serif" font-size="14" lengthAdjust="spacing" textLength="119.335" x="860.86" y="525.4795">description : text</text><text fill="#000000" font-family="sans-serif" font-size="14" lengthAdjust="spacing" textLength="124.1133" x="860.86" y="541.7764">debut_saison : int</text><text fill="#000000" font-family="sans-serif" font-size="14" lengthAdjust="spacing" textLength="101.0557" x="860.86" y="558.0732">fin_saison : int</text><text fill="#000000" font-family="sans-serif" font-size="14" lengthAdjust="spacing" textLength="196.335" x="860.86" y="574.3701">id_recette_parente : int (FK)</text><text fill="#000000" font-family="sans-serif" font-size="14" lengthAdjust="spacing" textLength="133.041" x="860.86" y="590.667">url_photo : varchar</text></g><!--class tag--><g id="elem_tag"><rect codeLine="55" fill="#F1F1F1" height="80.5938" id="tag" rx="2.5" ry="2.5" style="stroke:#181818;stroke-width:0.5;" width="147.8027" x="1209.86" y="213"/><ellipse cx="1268.0338" cy="229" fill="#ADD1B2" rx="11" ry="11" style="stroke:#181818;stroke-width:1;"/><path d="M1272.1432,235 L1264.4245,235 L1264.4245,222.6094 L1272.1432,222.6094 L1272.1432,224.7656 L1266.8776,224.7656 L1266.8776,227.4375 L1271.6432,227.4375 L1271.6432,229.5938 L1266.8776,229.5938 L1266.8776,232.8438 L1272.1432,232.8438 L1272.1432,235 Z " fill="#000000"/><text fill="#000000" font-family="sans-serif" font-size="14" lengthAdjust="spacing" textLength="22.9551" x="1288.5338" y="233.8467">tag</text><line style="stroke:#181818;stroke-width:0.5;" x1="1210.86" x2="1356.6627" y1="245" y2="245"/><ellipse cx="1220.86" cy="258.6484" fill="#000000" rx="3" ry="3" style="stroke:#000000;stroke-width:1;"/><text fill="#000000" font-family="sans-serif" font-size="14" lengthAdjust="spacing" textLength="77.6426" x="1229.86" y="261.9951">id : int (PK)</text><line style="stroke:#181818;stroke-width:1;" x1="1210.86" x2="1356.6627" y1="269.2969" y2="269.2969"/><text fill="#000000" font-family="sans-serif" font-size="14" lengthAdjust="spacing" textLength="135.8027" x="1215.86" y="286.292">label : varchar (UK)</text></g><!--class ustensile--><g id="elem_ustensile"><rect codeLine="61" fill="#F1F1F1" height="80.5938" id="ustensile" rx="2.5" ry="2.5" style="stroke:#181818;stroke-width:0.5;" width="145.0205" x="1058.36" y="699"/><ellipse cx="1095.9461" cy="715" fill="#ADD1B2" rx="11" ry="11" style="stroke:#181818;stroke-width:1;"/><path d="M1100.0555,721 L1092.3368,721 L1092.3368,708.6094 L1100.0555,708.6094 L1100.0555,710.7656 L1094.7899,710.7656 L1094.7899,713.4375 L1099.5555,713.4375 L1099.5555,715.5938 L1094.7899,715.5938 L1094.7899,718.8438 L1100.0555,718.8438 L1100.0555,721 Z " fill="#000000"/><text fill="#000000" font-family="sans-serif" font-size="14" lengthAdjust="spacing" textLength="62.8291" x="1114.9653" y="719.8467">ustensile</text><line style="stroke:#181818;stroke-width:0.5;" x1="1059.36" x2="1202.3805" y1="731" y2="731"/><ellipse cx="1069.36" cy="744.6484" fill="#000000" rx="3" ry="3" style="stroke:#000000;stroke-width:1;"/><text fill="#000000" font-family="sans-serif" font-size="14" lengthAdjust="spacing" textLength="77.6426" x="1078.36" y="747.9951">id : int (PK)</text><line style="stroke:#181818;stroke-width:1;" x1="1059.36" x2="1202.3805" y1="755.2969" y2="755.2969"/><text fill="#000000" font-family="sans-serif" font-size="14" lengthAdjust="spacing" textLength="133.0205" x="1064.36" y="772.292">nom : varchar (UK)</text></g><!--class utilisateur--><g id="elem_utilisateur"><rect codeLine="67" fill="#F1F1F1" height="113.1875" id="utilisateur" rx="2.5" ry="2.5" style="stroke:#181818;stroke-width:0.5;" width="222.6563" x="558.36" y="197"/><ellipse cx="630.1203" cy="213" fill="#ADD1B2" rx="11" ry="11" style="stroke:#181818;stroke-width:1;"/><path d="M634.2296,219 L626.5109,219 L626.5109,206.6094 L634.2296,206.6094 L634.2296,208.7656 L628.964,208.7656 L628.964,211.4375 L633.7296,211.4375 L633.7296,213.5938 L628.964,213.5938 L628.964,216.8438 L634.2296,216.8438 L634.2296,219 Z " fill="#000000"/><text fill="#000000" font-family="sans-serif" font-size="14" lengthAdjust="spacing" textLength="70.6357" x="650.6203" y="217.8467">utilisateur</text><line style="stroke:#181818;stroke-width:0.5;" x1="559.36" x2="780.0163" y1="229" y2="229"/><ellipse cx="569.36" cy="242.6484" fill="#000000" rx="3" ry="3" style="stroke:#000000;stroke-width:1;"/><text fill="#000000" font-family="sans-serif" font-size="14" lengthAdjust="spacing" textLength="89.9131" x="578.36" y="245.9951">id : uuid (PK)</text><line style="stroke:#181818;stroke-width:1;" x1="559.36" x2="780.0163" y1="253.2969" y2="253.2969"/><text fill="#000000" font-family="sans-serif" font-size="14" lengthAdjust="spacing" textLength="210.6563" x="564.36" y="270.292">nom_utilisateur : varchar (UK)</text><text fill="#000000" font-family="sans-serif" font-size="14" lengthAdjust="spacing" textLength="58.6934" x="564.36" y="286.5889">role : int</text><text fill="#000000" font-family="sans-serif" font-size="14" lengthAdjust="spacing" textLength="167.002" x="564.36" y="302.8857">mot_de_passe : varchar</text></g><!--link allergene to ingredient--><g id="link_allergene_ingredient"><path codeLine="75" d="M495.1428,539.8751 C470.6628,578.0651 447.2628,614.5954 418.5628,659.3754 " fill="transparent" id="allergene-ingredient" style="stroke:#181818;stroke-width:1;"/><line style="stroke:#181818;stroke-width:1;" x1="493.9338" x2="500.6689" y1="534.3489" y2="538.6662"/><line style="stroke:#181818;stroke-width:1;" x1="492.3149" x2="499.05" y1="536.8746" y2="541.1918"/><line style="stroke:#181818;stroke-width:1;" x1="495.1428" x2="499.46" y1="539.8751" y2="533.14"/><line style="stroke:#181818;stroke-width:1;" x1="413.1668" x2="413.9015" y1="667.7946" y2="677.7676"/><line style="stroke:#181818;stroke-width:1;" x1="413.1668" x2="403.7985" y1="667.7946" y2="671.2924"/><line style="stroke:#181818;stroke-width:1;" x1="413.1668" x2="408.85" y1="667.7946" y2="674.53"/><ellipse cx="416.4044" cy="662.7431" fill="transparent" rx="4" ry="4" style="stroke:#181818;stroke-width:1;"/><text fill="#000000" font-family="sans-serif" font-size="13" lengthAdjust="spacing" textLength="53.3838" x="438.86" y="641.0669">contient</text></g><!--link utilisateur to allergene--><g id="link_utilisateur_allergene"><path codeLine="76" d="M602.145,315.9171 C593.505,325.3771 590.66,329.61 583.86,340 C561.04,374.83 550.1018,402.579 540.5418,434.449 " fill="transparent" id="utilisateur-allergene" style="stroke:#181818;stroke-width:1;"/><line style="stroke:#181818;stroke-width:1;" x1="601.8889" x2="607.796" y1="310.266" y2="315.6611"/><line style="stroke:#181818;stroke-width:1;" x1="599.8658" x2="605.7729" y1="312.4812" y2="317.8762"/><line style="stroke:#181818;stroke-width:1;" x1="602.145" x2="607.54" y1="315.9171" y2="310.01"/><line style="stroke:#181818;stroke-width:1;" x1="537.6686" x2="541.117" y1="444.0273" y2="453.4139"/><line style="stroke:#181818;stroke-width:1;" x1="537.6686" x2="529.623" y1="444.0273" y2="449.9661"/><line style="stroke:#181818;stroke-width:1;" x1="537.6686" x2="535.37" y1="444.0273" y2="451.69"/><ellipse cx="539.3925" cy="438.2803" fill="transparent" rx="4" ry="4" style="stroke:#181818;stroke-width:1;"/><text fill="#000000" font-family="sans-serif" font-size="13" lengthAdjust="spacing" textLength="76.9844" x="584.86" y="353.0669">allergique à</text></g><!--link commentaire to utilisateur--><g id="link_commentaire_utilisateur"><path codeLine="77" d="M789.671,125.9504 C766.711,150.2104 750.8502,166.9507 727.9002,191.1907 " fill="transparent" id="commentaire-utilisateur" style="stroke:#181818;stroke-width:1;"/><line style="stroke:#181818;stroke-width:1;" x1="789.5153" x2="795.3257" y1="120.2957" y2="125.7947"/><line style="stroke:#181818;stroke-width:1;" x1="787.4532" x2="793.2635" y1="122.4746" y2="127.9736"/><line style="stroke:#181818;stroke-width:1;" x1="789.671" x2="795.17" y1="125.9504" y2="120.14"/><line style="stroke:#181818;stroke-width:1;" x1="728.0547" x2="722.2454" y1="196.8454" y2="191.3453"/><line style="stroke:#181818;stroke-width:1;" x1="730.1173" x2="724.308" y1="194.6669" y2="189.1668"/><line style="stroke:#181818;stroke-width:1;" x1="727.9002" x2="722.4" y1="191.1907" y2="197"/><text fill="#000000" font-family="sans-serif" font-size="13" lengthAdjust="spacing" textLength="54.8945" x="765.86" y="163.0669">écrit par</text></g><!--link commentaire to recette--><g id="link_commentaire_recette"><path codeLine="78" d="M890.1697,126.999 C924.0897,180.569 966.69,258.44 983.86,340 C987.04,355.13 988.1066,363.203 986.9066,378.983 " fill="transparent" id="commentaire-recette" style="stroke:#181818;stroke-width:1;"/><line style="stroke:#181818;stroke-width:1;" x1="884.6504" x2="891.4094" y1="125.7594" y2="121.4796"/><line style="stroke:#181818;stroke-width:1;" x1="886.2553" x2="893.0143" y1="128.294" y2="124.0143"/><line style="stroke:#181818;stroke-width:1;" x1="890.1697" x2="885.89" y1="126.999" y2="120.24"/><line style="stroke:#181818;stroke-width:1;" x1="990.5918" x2="982.6148" y1="383.2748" y2="382.6682"/><line style="stroke:#181818;stroke-width:1;" x1="990.8193" x2="982.8423" y1="380.2835" y2="379.6768"/><line style="stroke:#181818;stroke-width:1;" x1="986.9066" x2="986.3" y1="378.983" y2="386.96"/><text fill="#000000" font-family="sans-serif" font-size="13" lengthAdjust="spacing" textLength="77.0098" x="976.86" y="258.0669">à propos de</text></g><!--link utilisateur to recette--><g id="link_utilisateur_recette"><path codeLine="79" d="M789.4054,270.8222 C837.6554,282.5022 883.3,301.76 918.86,340 C931.08,353.15 933.7071,352.6029 939.7171,369.7529 " fill="transparent" id="utilisateur-recette" style="stroke:#181818;stroke-width:1;"/><line style="stroke:#181818;stroke-width:1;" x1="784.5766" x2="786.4588" y1="273.7688" y2="265.9934"/><line style="stroke:#181818;stroke-width:1;" x1="787.4924" x2="789.3746" y1="274.4747" y2="266.6992"/><line style="stroke:#181818;stroke-width:1;" x1="789.4054" x2="781.63" y1="270.8222" y2="268.94"/><line style="stroke:#181818;stroke-width:1;" x1="943.0243" x2="951.3324" y1="379.1902" y2="384.7557"/><line style="stroke:#181818;stroke-width:1;" x1="943.0243" x2="940.0076" y1="379.1902" y2="388.7243"/><line style="stroke:#181818;stroke-width:1;" x1="943.0243" x2="945.67" y1="379.1902" y2="386.74"/><ellipse cx="941.0399" cy="373.5278" fill="transparent" rx="4" ry="4" style="stroke:#181818;stroke-width:1;"/><text fill="#000000" font-family="sans-serif" font-size="13" lengthAdjust="spacing" textLength="43.9194" x="931.86" y="353.0669">favoris</text></g><!--link utilisateur to recette--><g id="link_utilisateur_recette"><path codeLine="82" d="M736.1391,315.4883 C754.2091,331.2483 768.37,342.73 787.86,357 C808.45,372.09 816.2,371.98 836.86,387 C842.72,391.27 834.4275,384.7073 840.3575,389.3073 " fill="transparent" id="utilisateur-recette-1" style="stroke:#181818;stroke-width:1;"/><line style="stroke:#181818;stroke-width:1;" x1="730.4954" x2="735.7537" y1="315.8737" y2="309.8446"/><line style="stroke:#181818;stroke-width:1;" x1="732.7563" x2="738.0146" y1="317.8456" y2="311.8165"/><line style="stroke:#181818;stroke-width:1;" x1="736.1391" x2="730.11" y1="315.4883" y2="310.23"/><line style="stroke:#181818;stroke-width:1;" x1="848.2589" x2="858.2576" y1="395.4366" y2="395.5992"/><line style="stroke:#181818;stroke-width:1;" x1="848.2589" x2="850.9024" y1="395.4366" y2="405.0808"/><line style="stroke:#181818;stroke-width:1;" x1="848.2589" x2="854.58" y1="395.4366" y2="400.34"/><ellipse cx="843.518" cy="391.759" fill="transparent" rx="4" ry="4" style="stroke:#181818;stroke-width:1;"/><text fill="#000000" font-family="sans-serif" font-size="13" lengthAdjust="spacing" textLength="29.2881" x="788.86" y="353.0669">note</text></g><!--link utilisateur to recette--><g id="link_utilisateur_recette"><path codeLine="86" d="M786.5319,314.2251 C801.5519,323.4751 809.55,329.36 822.86,340 C840.25,353.9 851.7919,364.3573 867.6419,380.9373 " fill="transparent" id="utilisateur-recette-2" style="stroke:#181818;stroke-width:1;"/><line style="stroke:#181818;stroke-width:1;" x1="781.0284" x2="785.2235" y1="315.5335" y2="308.7216"/><line style="stroke:#181818;stroke-width:1;" x1="783.5829" x2="787.7779" y1="317.1066" y2="310.2947"/><line style="stroke:#181818;stroke-width:1;" x1="786.5319" x2="779.72" y1="314.2251" y2="310.03"/><line style="stroke:#181818;stroke-width:1;" x1="873.2973" x2="867.5146" y1="381.0646" y2="386.5927"/><line style="stroke:#181818;stroke-width:1;" x1="871.2243" x2="865.4415" y1="378.8961" y2="384.4242"/><line style="stroke:#181818;stroke-width:1;" x1="867.6419" x2="873.17" y1="380.9373" y2="386.72"/><text fill="#000000" font-family="sans-serif" font-size="13" lengthAdjust="spacing" textLength="54.1836" x="839.86" y="353.0669">crée par</text></g><!--link utilisateur to ingredient--><g id="link_utilisateur_ingredient"><path codeLine="80" d="M550.3753,265.1201 C406.4653,280.5001 177.09,315.45 131.86,387 C81.74,466.26 85.51,516.47 131.86,598 C166.61,659.14 222.7843,690.2083 278.4643,710.8683 " fill="transparent" id="utilisateur-ingredient" style="stroke:#181818;stroke-width:1;"/><line style="stroke:#181818;stroke-width:1;" x1="553.9276" x2="554.7777" y1="260.7177" y2="268.6724"/><line style="stroke:#181818;stroke-width:1;" x1="550.9446" x2="551.7947" y1="261.0365" y2="268.9912"/><line style="stroke:#181818;stroke-width:1;" x1="550.3753" x2="558.33" y1="265.1201" y2="264.27"/><line style="stroke:#181818;stroke-width:1;" x1="287.8397" x2="297.4272" y1="714.347" y2="711.5048"/><line style="stroke:#181818;stroke-width:1;" x1="287.8397" x2="293.2528" y1="714.347" y2="722.7552"/><line style="stroke:#181818;stroke-width:1;" x1="287.8397" x2="295.34" y1="714.347" y2="717.13"/><ellipse cx="282.2144" cy="712.2598" fill="transparent" rx="4" ry="4" style="stroke:#181818;stroke-width:1;"/><text fill="#000000" font-family="sans-serif" font-size="13" lengthAdjust="spacing" textLength="80.8438" x="132.86" y="497.0669">dans le frigo</text></g><!--link utilisateur to ingredient--><g id="link_utilisateur_ingredient"><path codeLine="81" d="M550.3294,272.929 C484.8294,285.769 409.74,305.69 341.86,340 C312.24,354.97 298.13,357.05 283.86,387 C243.5,471.65 258.89,507.61 283.86,598 C291.27,624.85 295.7009,636.5158 310.2109,659.4658 " fill="transparent" id="utilisateur-ingredient-1" style="stroke:#181818;stroke-width:1;"/><line style="stroke:#181818;stroke-width:1;" x1="553.4852" x2="555.0242" y1="268.2342" y2="276.0848"/><line style="stroke:#181818;stroke-width:1;" x1="550.5413" x2="552.0802" y1="268.8113" y2="276.6619"/><line style="stroke:#181818;stroke-width:1;" x1="550.3294" x2="558.18" y1="272.929" y2="271.39"/><line style="stroke:#181818;stroke-width:1;" x1="315.5548" x2="324.9014" y1="667.9181" y2="671.4736"/><line style="stroke:#181818;stroke-width:1;" x1="315.5548" x2="314.7586" y1="667.9181" y2="677.8864"/><line style="stroke:#181818;stroke-width:1;" x1="315.5548" x2="319.83" y1="667.9181" y2="674.68"/><ellipse cx="312.3485" cy="662.8467" fill="transparent" rx="4" ry="4" style="stroke:#181818;stroke-width:1;"/><text fill="#000000" font-family="sans-serif" font-size="13" lengthAdjust="spacing" textLength="39.7871" x="284.86" y="497.0669">exclut</text></g><!--link utilisateur to ingredient--><g id="link_utilisateur_ingredient"><path codeLine="92" d="M550.3574,279.1489 C488.5274,297.6989 424.13,328.59 384.86,387 C326.99,473.06 335.0499,581.8526 349.2999,657.3126 " fill="transparent" id="utilisateur-ingredient-2" style="stroke:#181818;stroke-width:1;"/><line style="stroke:#181818;stroke-width:1;" x1="553.0393" x2="555.3382" y1="274.1682" y2="281.8307"/><line style="stroke:#181818;stroke-width:1;" x1="550.1658" x2="552.4647" y1="275.0302" y2="282.6928"/><line style="stroke:#181818;stroke-width:1;" x1="550.3574" x2="558.02" y1="279.1489" y2="276.85"/><line style="stroke:#181818;stroke-width:1;" x1="351.1555" x2="358.5358" y1="667.1389" y2="673.8866"/><line style="stroke:#181818;stroke-width:1;" x1="351.1555" x2="346.7442" y1="667.1389" y2="676.1134"/><line style="stroke:#181818;stroke-width:1;" x1="351.1555" x2="352.64" y1="667.1389" y2="675"/><ellipse cx="350.0421" cy="661.2431" fill="transparent" rx="4" ry="4" style="stroke:#181818;stroke-width:1;"/><text fill="#000000" font-family="sans-serif" font-size="13" lengthAdjust="spacing" textLength="46.7505" x="385.86" y="497.0669">produit</text></g><!--link utilisateur to panier--><g id="link_utilisateur_panier"><path codeLine="83" d="M683.0315,318.0113 C686.3015,333.2213 688.26,341.86 691.86,357 C698.71,385.88 702.4331,400.6548 709.2531,426.2948 " fill="transparent" id="utilisateur-panier" style="stroke:#181818;stroke-width:1;"/><line style="stroke:#181818;stroke-width:1;" x1="678.2801" x2="686.1014" y1="314.9414" y2="313.2599"/><line style="stroke:#181818;stroke-width:1;" x1="678.9107" x2="686.732" y1="317.8744" y2="316.1929"/><line style="stroke:#181818;stroke-width:1;" x1="683.0315" x2="681.35" y1="318.0113" y2="310.19"/><line style="stroke:#181818;stroke-width:1;" x1="711.8236" x2="719.6784" y1="435.9588" y2="442.1477"/><line style="stroke:#181818;stroke-width:1;" x1="711.8236" x2="708.0816" y1="435.9588" y2="445.2323"/><line style="stroke:#181818;stroke-width:1;" x1="711.8236" x2="713.88" y1="435.9588" y2="443.69"/><ellipse cx="710.2813" cy="430.1604" fill="transparent" rx="4" ry="4" style="stroke:#181818;stroke-width:1;"/><text fill="#000000" font-family="sans-serif" font-size="13" lengthAdjust="spacing" textLength="54.1836" x="692.86" y="353.0669">crée par</text></g><!--link utilisateur to panier--><g id="link_utilisateur_panier"><path codeLine="84" d="M667.3766,318.2387 C667.6566,333.5187 668.76,342.01 671.86,357 C678.06,387.02 683.1997,402.5047 694.8397,427.6547 " fill="transparent" id="utilisateur-panier-1" style="stroke:#181818;stroke-width:1;"/><line style="stroke:#181818;stroke-width:1;" x1="663.304" x2="671.3026" y1="314.3126" y2="314.166"/><line style="stroke:#181818;stroke-width:1;" x1="663.3589" x2="671.3576" y1="317.3121" y2="317.1655"/><line style="stroke:#181818;stroke-width:1;" x1="667.3766" x2="667.23" y1="318.2387" y2="310.24"/><line style="stroke:#181818;stroke-width:1;" x1="699.0398" x2="707.8451" y1="436.7299" y2="441.4699"/><line style="stroke:#181818;stroke-width:1;" x1="699.0398" x2="696.9549" y1="436.7299" y2="446.5101"/><line style="stroke:#181818;stroke-width:1;" x1="699.0398" x2="702.4" y1="436.7299" y2="443.99"/><ellipse cx="696.5197" cy="431.2848" fill="transparent" rx="4" ry="4" style="stroke:#181818;stroke-width:1;"/><text fill="#000000" font-family="sans-serif" font-size="13" lengthAdjust="spacing" textLength="7.9663" x="672.86" y="353.0669">a</text></g><!--link utilisateur to utilisateur--><g id="link_utilisateur_utilisateur"><path codeLine="85" d="M789.5975,237.6631 C809.9975,239.7731 816.36,244.5 816.36,253.5 C816.36,262.5 819.9445,266.1981 799.5445,268.3081 " fill="transparent" id="utilisateur-utilisateur" style="stroke:#181818;stroke-width:1;"/><line style="stroke:#181818;stroke-width:1;" x1="785.2072" x2="786.0303" y1="241.2303" y2="233.2728"/><line style="stroke:#181818;stroke-width:1;" x1="788.1913" x2="789.0144" y1="241.539" y2="233.5814"/><line style="stroke:#181818;stroke-width:1;" x1="789.5975" x2="781.64" y1="237.6631" y2="236.84"/><line style="stroke:#181818;stroke-width:1;" x1="789.5975" x2="782.2573" y1="269.3369" y2="276.1282"/><line style="stroke:#181818;stroke-width:1;" x1="789.5975" x2="781.0227" y1="269.3369" y2="264.1918"/><line style="stroke:#181818;stroke-width:1;" x1="789.5975" x2="781.64" y1="269.3369" y2="270.16"/><ellipse cx="795.5657" cy="268.7196" fill="transparent" rx="4" ry="4" style="stroke:#181818;stroke-width:1;"/><text fill="#000000" font-family="sans-serif" font-size="13" lengthAdjust="spacing" textLength="92.2505" x="822.36" y="258.0669">producteur de</text></g><!--link recette to recette--><g id="link_recette_recette"><path codeLine="87" d="M1071.0341,467.869 C1091.3441,470.869 1097.86,478.3 1097.86,492.5 C1097.86,506.7 1101.2368,512.6698 1080.9268,515.6698 " fill="transparent" id="recette-recette" style="stroke:#181818;stroke-width:1;"/><line style="stroke:#181818;stroke-width:1;" x1="1066.4926" x2="1067.6616" y1="471.2416" y2="463.3274"/><line style="stroke:#181818;stroke-width:1;" x1="1069.4604" x2="1070.6294" y1="471.6799" y2="463.7658"/><line style="stroke:#181818;stroke-width:1;" x1="1071.0341" x2="1063.12" y1="467.869" y2="466.7"/><line style="stroke:#181818;stroke-width:1;" x1="1071.0341" x2="1063.9967" y1="517.131" y2="524.2356"/><line style="stroke:#181818;stroke-width:1;" x1="1071.0341" x2="1062.2433" y1="517.131" y2="512.3644"/><line style="stroke:#181818;stroke-width:1;" x1="1071.0341" x2="1063.12" y1="517.131" y2="518.3"/><ellipse cx="1076.9697" cy="516.2543" fill="transparent" rx="4" ry="4" style="stroke:#181818;stroke-width:1;"/><text fill="#000000" font-family="sans-serif" font-size="13" lengthAdjust="spacing" textLength="63.2798" x="1103.86" y="497.0669">parent de</text></g><!--link tag to recette--><g id="link_tag_recette"><path codeLine="88" d="M1222.996,298.8834 C1177.726,331.8934 1132.9828,364.5131 1077.6328,404.8831 " fill="transparent" id="tag-recette" style="stroke:#181818;stroke-width:1;"/><line style="stroke:#181818;stroke-width:1;" x1="1223.8713" x2="1228.5847" y1="293.2947" y2="299.7587"/><line style="stroke:#181818;stroke-width:1;" x1="1221.4473" x2="1226.1607" y1="295.0622" y2="301.5263"/><line style="stroke:#181818;stroke-width:1;" x1="1222.996" x2="1229.46" y1="298.8834" y2="294.17"/><line style="stroke:#181818;stroke-width:1;" x1="1069.5535" x2="1066.6256" y1="410.7758" y2="420.3376"/><line style="stroke:#181818;stroke-width:1;" x1="1069.5535" x2="1059.5544" y1="410.7758" y2="410.6424"/><line style="stroke:#181818;stroke-width:1;" x1="1069.5535" x2="1063.09" y1="410.7758" y2="415.49"/><ellipse cx="1074.4011" cy="407.2402" fill="transparent" rx="4" ry="4" style="stroke:#181818;stroke-width:1;"/><text fill="#000000" font-family="sans-serif" font-size="13" lengthAdjust="spacing" textLength="27.3203" x="1160.86" y="353.0669">lié à</text></g><!--link utilisateur to ustensile--><g id="link_utilisateur_ustensile"><path codeLine="89" d="M789.4395,282.0729 C934.1695,315.9429 1161.66,371.18 1173.86,387 C1245.18,479.5 1194.9045,612.173 1160.1345,682.753 " fill="transparent" id="utilisateur-ustensile" style="stroke:#181818;stroke-width:1;"/><line style="stroke:#181818;stroke-width:1;" x1="784.6333" x2="786.4562" y1="285.0562" y2="277.2667"/><line style="stroke:#181818;stroke-width:1;" x1="787.5544" x2="789.3773" y1="285.7398" y2="277.9503"/><line style="stroke:#181818;stroke-width:1;" x1="789.4395" x2="781.65" y1="282.0729" y2="280.25"/><line style="stroke:#181818;stroke-width:1;" x1="1155.7153" x2="1157.5623" y1="691.7236" y2="701.5515"/><line style="stroke:#181818;stroke-width:1;" x1="1155.7153" x2="1146.7977" y1="691.7236" y2="696.2485"/><line style="stroke:#181818;stroke-width:1;" x1="1155.7153" x2="1152.18" y1="691.7236" y2="698.9"/><ellipse cx="1158.3669" cy="686.3412" fill="transparent" rx="4" ry="4" style="stroke:#181818;stroke-width:1;"/><text fill="#000000" font-family="sans-serif" font-size="13" lengthAdjust="spacing" textLength="39.7871" x="1207.86" y="497.0669">exclut</text></g><!--link recette to ustensile--><g id="link_recette_ustensile"><path codeLine="90" d="M1036.8966,604.6576 C1061.9166,640.2976 1073.4378,656.7178 1092.6378,684.0678 " fill="transparent" id="recette-ustensile" style="stroke:#181818;stroke-width:1;"/><line style="stroke:#181818;stroke-width:1;" x1="1031.3245" x2="1037.8721" y1="603.6821" y2="599.0855"/><line style="stroke:#181818;stroke-width:1;" x1="1033.0482" x2="1039.5958" y1="606.1375" y2="601.5409"/><line style="stroke:#181818;stroke-width:1;" x1="1036.8966" x2="1032.3" y1="604.6576" y2="598.11"/><line style="stroke:#181818;stroke-width:1;" x1="1098.3835" x2="1107.8907" y1="692.2523" y2="695.3526"/><line style="stroke:#181818;stroke-width:1;" x1="1098.3835" x2="1098.0693" y1="692.2523" y2="702.2474"/><line style="stroke:#181818;stroke-width:1;" x1="1098.3835" x2="1102.98" y1="692.2523" y2="698.8"/><ellipse cx="1094.9361" cy="687.3416" fill="transparent" rx="4" ry="4" style="stroke:#181818;stroke-width:1;"/><text fill="#000000" font-family="sans-serif" font-size="13" lengthAdjust="spacing" textLength="51.8857" x="1060.86" y="641.0669">requiert</text></g><!--link panier to ingredient--><g id="link_panier_ingredient"><path codeLine="91" d="M675.5311,546.7441 C656.2811,565.5741 638.76,581.11 615.86,598 C560.19,639.04 507.4185,668.9297 456.4185,695.0697 " fill="transparent" id="panier-ingredient" style="stroke:#181818;stroke-width:1;"/><line style="stroke:#181818;stroke-width:1;" x1="675.5935" x2="681.1876" y1="541.0876" y2="546.8065"/><line style="stroke:#181818;stroke-width:1;" x1="673.4489" x2="679.043" y1="543.1854" y2="548.9043"/><line style="stroke:#181818;stroke-width:1;" x1="675.5311" x2="681.25" y1="546.7441" y2="541.15"/><line style="stroke:#181818;stroke-width:1;" x1="447.5193" x2="443.1368" y1="699.631" y2="708.6195"/><line style="stroke:#181818;stroke-width:1;" x1="447.5193" x2="437.6632" y1="699.631" y2="697.9405"/><line style="stroke:#181818;stroke-width:1;" x1="447.5193" x2="440.4" y1="699.631" y2="703.28"/><ellipse cx="452.8588" cy="696.8942" fill="transparent" rx="4" ry="4" style="stroke:#181818;stroke-width:1;"/><text fill="#000000" font-family="sans-serif" font-size="13" lengthAdjust="spacing" textLength="53.3838" x="572.86" y="641.0669">contient</text></g><!--link recette to ingredient--><g id="link_recette_ingredient"><path codeLine="93" d="M848.0084,591.6491 C842.1184,595.4891 842.85,594.73 836.86,598 C706.67,669.07 553.7405,705.2065 458.3005,723.1365 " fill="transparent" id="recette-ingredient" style="stroke:#181818;stroke-width:1;"/><line style="stroke:#181818;stroke-width:1;" x1="849.1747" x2="853.5438" y1="586.1138" y2="592.8153"/><line style="stroke:#181818;stroke-width:1;" x1="846.6616" x2="851.0307" y1="587.7522" y2="594.4537"/><line style="stroke:#181818;stroke-width:1;" x1="848.0084" x2="854.71" y1="591.6491" y2="587.28"/><line style="stroke:#181818;stroke-width:1;" x1="448.4725" x2="441.7178" y1="724.9829" y2="732.3568"/><line style="stroke:#181818;stroke-width:1;" x1="448.4725" x2="439.5022" y1="724.9829" y2="720.5632"/><line style="stroke:#181818;stroke-width:1;" x1="448.4725" x2="440.61" y1="724.9829" y2="726.46"/><ellipse cx="454.3693" cy="723.8751" fill="transparent" rx="4" ry="4" style="stroke:#181818;stroke-width:1;"/><text fill="#000000" font-family="sans-serif" font-size="13" lengthAdjust="spacing" textLength="53.3838" x="766.86" y="641.0669">contient</text></g><!--link frigo to ingredient--><g id="link_frigo_ingredient"><path codeLine="94" d="M230.6714,126.2498 C148.2514,224.9198 6,429.9 87.86,598 C125.95,676.24 208.2307,707.6459 277.7607,723.1359 " fill="transparent" id="frigo-ingredient" style="stroke:#181818;stroke-width:1;"/><line style="stroke:#181818;stroke-width:1;" x1="230.1658" x2="236.3056" y1="120.6156" y2="125.7442"/><line style="stroke:#181818;stroke-width:1;" x1="228.2425" x2="234.3823" y1="122.918" y2="128.0466"/><line style="stroke:#181818;stroke-width:1;" x1="230.6714" x2="235.8" y1="126.2498" y2="120.11"/><line style="stroke:#181818;stroke-width:1;" x1="287.5214" x2="296.6347" y1="725.3104" y2="721.1936"/><line style="stroke:#181818;stroke-width:1;" x1="287.5214" x2="294.0253" y1="725.3104" y2="732.9064"/><line style="stroke:#181818;stroke-width:1;" x1="287.5214" x2="295.33" y1="725.3104" y2="727.05"/><ellipse cx="281.665" cy="724.0057" fill="transparent" rx="4" ry="4" style="stroke:#181818;stroke-width:1;"/></g><!--link frigo to utilisateur--><g id="link_frigo_utilisateur"><path codeLine="95" d="M403.0754,121.8871 C453.9454,146.7871 490.9031,164.8859 541.9731,189.8859 " fill="transparent" id="frigo-utilisateur" style="stroke:#181818;stroke-width:1;"/><line style="stroke:#181818;stroke-width:1;" x1="397.7241" x2="401.2413" y1="123.7213" y2="116.5359"/><line style="stroke:#181818;stroke-width:1;" x1="400.4187" x2="403.9358" y1="125.0402" y2="117.8548"/><line style="stroke:#181818;stroke-width:1;" x1="403.0754" x2="395.89" y1="121.8871" y2="118.37"/><line style="stroke:#181818;stroke-width:1;" x1="550.9547" x2="560.778" y1="194.2826" y2="192.411"/><line style="stroke:#181818;stroke-width:1;" x1="550.9547" x2="555.502" y1="194.2826" y2="203.189"/><line style="stroke:#181818;stroke-width:1;" x1="550.9547" x2="558.14" y1="194.2826" y2="197.8"/><ellipse cx="545.5658" cy="191.6446" fill="transparent" rx="4" ry="4" style="stroke:#181818;stroke-width:1;"/></g><!--SRC=[fLHBSjim3Dth51ojt4vzWHoWcsoowLh3IB2334NA99Xn9kvTilKvTB52b1HICcCdquq_uEC3yF10q8JqAagf5DWzQ2Z5Mo74Ju6Dk1EeIMmUxdzmPBlb3oKVGN7yHThwILgn-SDdVui29fRQj2t_bcYlys1JUKA5JX9uom3l6RVv7H1yQA468fXlZl7QQ0BjEKXmf3JjpkBUn8HPxeVxNsBa2H3KUmiDCaCiBm8Qlbl9P-CfK_p1oo4lH1tIMYBnLGMqQTSw2j70ewVAINH6ZtSuk4Ez3dchgkx9a5cM48lef4QmjqRGMTFuEZE1eNqE3LzfQzDKljuN_oTeEyUPe9DM4YPDi5Sw1KUSnppML5l8UQ81Lrli9e8m_w_B5GrLSHNSpSfOdyWvjqro_rzBuHtRrg62xneYvOYENh3CtavfLlPVUSmQ5GLl3LNDe8fpApj_l0VYTDfkpPjOB4mvx6BmU94ccw3nxjtyiE31W-ZVoo9v8GByT1BBSil-p9CcmPFAekFJKFRlWYtS6STEo1QIO7VonLXqMTYojKPg9rYZyL6vZOTZhJpTogyDvMiSLpLeQlipZ7rVnSdi-Kh5PBTpuYo5J3BFqSiEnjK9RBmH6O32_XncdAjkte5KiLMk1SR2mNE_Z9eQ_xuDbz0W25vc_OmmZFyIj8mdMVy1]--></g></svg>